<svg version="1.1" viewBox="0.0 0.0 959.0944881889764 657.509186351706" fill="none" stroke="none" stroke-linecap="square" stroke-miterlimit="10"
    xmlns:xlink="http://www.w3.org/1999/xlink"
    xmlns="http://www.w3.org/2000/svg">
    <clipPath id="p.0">
        <path d="m0 0l959.0945 0l0 657.5092l-959.0945 0l0 -657.5092z" clip-rule="nonzero"/>
    </clipPath>

    <g clip-path="url(#p.0)">
        <path fill="#000000" fill-opacity="0.0" d="m0 0l959.0945 0l0 657.5092l-959.0945 0z" fill-rule="evenodd"/>
        <path fill="#000000" fill-opacity="0.0" d="m-0.4527559 0l661.3858 0l0 529.7953l-661.3858 0z" fill-rule="evenodd"/>
        <path stroke="#000000" stroke-width="2.0" stroke-linejoin="round" stroke-linecap="butt" stroke-dasharray="8.0,6.0" d="m-0.4527559 0l661.3858 0l0 529.7953l-661.3858 0z" fill-rule="evenodd"/>
        <path fill="#000000" d="m243.25946 26.919998l-4.78125 -13.359375l2.9375 0l3.375 9.890625l3.265625 -9.890625l2.859375 0l-4.78125 13.359375l-2.875 0zm9.021698 -10.984375l0 -2.375l2.5625 0l0 2.375l-2.5625 0zm0 10.984375l0 -9.671875l2.5625 0l0 9.671875l-2.5625 0zm7.636444 0l-2.5625 0l0 -9.671875l2.375 0l0 1.375q0.609375 -0.984375 1.09375 -1.28125q0.484375 -0.3125 1.109375 -0.3125q0.875 0 1.6875 0.484375l-0.796875 2.234375q-0.640625 -0.421875 -1.203125 -0.421875q-0.53125 0 -0.90625 0.296875q-0.375 0.296875 -0.59375 1.078125q-0.203125 0.765625 -0.203125 3.234375l0 2.984375zm9.244629 -9.671875l0 2.03125l-1.75 0l0 3.90625q0 1.1875 0.046875 1.390625q0.046875 0.1875 0.21875 0.3125q0.1875 0.125 0.4375 0.125q0.359375 0 1.03125 -0.25l0.21875 2.0q-0.890625 0.375 -2.015625 0.375q-0.703125 0 -1.265625 -0.234375q-0.546875 -0.234375 -0.8125 -0.59375q-0.25 -0.375 -0.34375 -1.0q-0.09375 -0.453125 -0.09375 -1.8125l0 -4.21875l-1.171875 0l0 -2.03125l1.171875 0l0 -1.921875l2.578125 -1.5l0 3.421875l1.75 0zm8.134552 9.671875l0 -1.453125q-0.53125 0.78125 -1.390625 1.234375q-0.859375 0.4375 -1.8125 0.4375q-0.96875 0 -1.75 -0.421875q-0.765625 -0.4375 -1.125 -1.203125q-0.34375 -0.78125 -0.34375 -2.140625l0 -6.125l2.5625 0l0 4.4375q0 2.046875 0.140625 2.515625q0.140625 0.453125 0.515625 0.71875q0.375 0.265625 0.953125 0.265625q0.65625 0 1.171875 -0.359375q0.515625 -0.359375 0.703125 -0.890625q0.203125 -0.53125 0.203125 -2.609375l0 -4.078125l2.546875 0l0 9.671875l-2.375 0zm6.9428406 -6.71875l-2.328125 -0.421875q0.40625 -1.40625 1.359375 -2.078125q0.953125 -0.671875 2.84375 -0.671875q1.703125 0 2.546875 0.40625q0.84375 0.40625 1.171875 1.03125q0.34375 0.625 0.34375 2.28125l-0.015625 3.0q0 1.265625 0.109375 1.875q0.125 0.609375 0.46875 1.296875l-2.53125 0q-0.109375 -0.25 -0.25 -0.75q-0.0625 -0.234375 -0.09375 -0.3125q-0.65625 0.640625 -1.40625 0.96875q-0.734375 0.3125 -1.59375 0.3125q-1.484375 0 -2.34375 -0.8125q-0.859375 -0.8125 -0.859375 -2.046875q0 -0.828125 0.390625 -1.46875q0.390625 -0.640625 1.09375 -0.96875q0.703125 -0.34375 2.03125 -0.609375q1.796875 -0.328125 2.484375 -0.625l0 -0.25q0 -0.75 -0.359375 -1.0625q-0.359375 -0.3125 -1.375 -0.3125q-0.6875 0 -1.078125 0.28125q-0.375 0.265625 -0.609375 0.9375zm3.421875 2.078125q-0.484375 0.15625 -1.5625 0.390625q-1.0625 0.21875 -1.390625 0.4375q-0.5 0.359375 -0.5 0.90625q0 0.53125 0.40625 0.9375q0.40625 0.390625 1.015625 0.390625q0.703125 0 1.328125 -0.46875q0.46875 -0.34375 0.609375 -0.84375q0.09375 -0.328125 0.09375 -1.25l0 -0.5zm5.0476074 4.640625l0 -13.359375l2.5625 0l0 13.359375l-2.5625 0zm10.382233 0l0 -13.359375l4.328125 0q2.453125 0 3.203125 0.203125q1.140625 0.296875 1.921875 1.3125q0.78125 1.0 0.78125 2.59375q0 1.234375 -0.453125 2.078125q-0.453125 0.828125 -1.140625 1.3125q-0.6875 0.46875 -1.390625 0.625q-0.96875 0.203125 -2.796875 0.203125l-1.765625 0l0 5.03125l-2.6875 0zm2.6875 -11.09375l0 3.78125l1.484375 0q1.59375 0 2.125 -0.203125q0.546875 -0.203125 0.84375 -0.65625q0.3125 -0.453125 0.3125 -1.03125q0 -0.734375 -0.4375 -1.203125q-0.421875 -0.484375 -1.078125 -0.59375q-0.484375 -0.09375 -1.9375 -0.09375l-1.3125 0zm12.193573 11.09375l-2.5625 0l0 -9.671875l2.375 0l0 1.375q0.609375 -0.984375 1.09375 -1.28125q0.484375 -0.3125 1.109375 -0.3125q0.875 0 1.6875 0.484375l-0.796875 2.234375q-0.640625 -0.421875 -1.203125 -0.421875q-0.53125 0 -0.90625 0.296875q-0.375 0.296875 -0.59375 1.078125q-0.203125 0.765625 -0.203125 3.234375l0 2.984375zm4.807129 -10.984375l0 -2.375l2.5625 0l0 2.375l-2.5625 0zm0 10.984375l0 -9.671875l2.5625 0l0 9.671875l-2.5625 0zm7.839569 0l-3.90625 -9.671875l2.6875 0l1.828125 4.9375l0.53125 1.640625q0.203125 -0.625 0.265625 -0.828125q0.125 -0.40625 0.265625 -0.8125l1.84375 -4.9375l2.625 0l-3.84375 9.671875l-2.296875 0zm9.625702 -6.71875l-2.328125 -0.421875q0.40625 -1.40625 1.359375 -2.078125q0.953125 -0.671875 2.84375 -0.671875q1.703125 0 2.546875 0.40625q0.84375 0.40625 1.171875 1.03125q0.34375 0.625 0.34375 2.28125l-0.015625 3.0q0 1.265625 0.109375 1.875q0.125 0.609375 0.46875 1.296875l-2.53125 0q-0.109375 -0.25 -0.25 -0.75q-0.0625 -0.234375 -0.09375 -0.3125q-0.65625 0.640625 -1.40625 0.96875q-0.734375 0.3125 -1.59375 0.3125q-1.484375 0 -2.34375 -0.8125q-0.859375 -0.8125 -0.859375 -2.046875q0 -0.828125 0.390625 -1.46875q0.390625 -0.640625 1.09375 -0.96875q0.703125 -0.34375 2.03125 -0.609375q1.796875 -0.328125 2.484375 -0.625l0 -0.25q0 -0.75 -0.359375 -1.0625q-0.359375 -0.3125 -1.375 -0.3125q-0.6875 0 -1.078125 0.28125q-0.375 0.265625 -0.609375 0.9375zm3.421875 2.078125q-0.484375 0.15625 -1.5625 0.390625q-1.0625 0.21875 -1.390625 0.4375q-0.5 0.359375 -0.5 0.90625q0 0.53125 0.40625 0.9375q0.40625 0.390625 1.015625 0.390625q0.703125 0 1.328125 -0.46875q0.46875 -0.34375 0.609375 -0.84375q0.09375 -0.328125 0.09375 -1.25l0 -0.5zm9.485107 -5.03125l0 2.03125l-1.75 0l0 3.90625q0 1.1875 0.046875 1.390625q0.046875 0.1875 0.21875 0.3125q0.1875 0.125 0.4375 0.125q0.359375 0 1.03125 -0.25l0.21875 2.0q-0.890625 0.375 -2.015625 0.375q-0.703125 0 -1.265625 -0.234375q-0.546875 -0.234375 -0.8125 -0.59375q-0.25 -0.375 -0.34375 -1.0q-0.09375 -0.453125 -0.09375 -1.8125l0 -4.21875l-1.171875 0l0 -2.03125l1.171875 0l0 -1.921875l2.578125 -1.5l0 3.421875l1.75 0zm7.368927 6.59375l2.546875 0.421875q-0.484375 1.40625 -1.546875 2.140625q-1.0625 0.734375 -2.65625 0.734375q-2.515625 0 -3.734375 -1.65625q-0.953125 -1.3125 -0.953125 -3.328125q0 -2.40625 1.25 -3.765625q1.265625 -1.359375 3.1875 -1.359375q2.15625 0 3.40625 1.421875q1.25 1.421875 1.1875 4.375l-6.40625 0q0.03125 1.140625 0.609375 1.78125q0.59375 0.625 1.484375 0.625q0.59375 0 1.0 -0.328125q0.421875 -0.328125 0.625 -1.0625zm0.15625 -2.59375q-0.03125 -1.109375 -0.578125 -1.6875q-0.546875 -0.578125 -1.328125 -0.578125q-0.84375 0 -1.390625 0.609375q-0.546875 0.609375 -0.53125 1.65625l3.828125 0zm18.371521 0.765625l2.609375 0.828125q-0.59375 2.1875 -2.0 3.25q-1.390625 1.0625 -3.546875 1.0625q-2.65625 0 -4.375 -1.8125q-1.703125 -1.828125 -1.703125 -4.984375q0 -3.328125 1.71875 -5.171875q1.71875 -1.84375 4.515625 -1.84375q2.453125 0 3.984375 1.4375q0.921875 0.859375 1.375 2.46875l-2.671875 0.640625q-0.234375 -1.046875 -0.984375 -1.640625q-0.75 -0.609375 -1.828125 -0.609375q-1.484375 0 -2.421875 1.078125q-0.921875 1.0625 -0.921875 3.4375q0 2.53125 0.90625 3.609375q0.921875 1.078125 2.375 1.078125q1.078125 0 1.84375 -0.671875q0.78125 -0.6875 1.125 -2.15625zm4.910431 4.90625l0 -13.359375l2.5625 0l0 13.359375l-2.5625 0zm4.589569 -4.96875q0 -1.28125 0.625 -2.46875q0.625 -1.203125 1.78125 -1.828125q1.15625 -0.625 2.578125 -0.625q2.1875 0 3.59375 1.421875q1.40625 1.421875 1.40625 3.609375q0 2.1875 -1.421875 3.640625q-1.421875 1.4375 -3.5625 1.4375q-1.328125 0 -2.546875 -0.59375q-1.203125 -0.609375 -1.828125 -1.765625q-0.625 -1.171875 -0.625 -2.828125zm2.625 0.125q0 1.453125 0.671875 2.21875q0.6875 0.75 1.6875 0.75q1.0 0 1.671875 -0.75q0.6875 -0.765625 0.6875 -2.234375q0 -1.421875 -0.6875 -2.1875q-0.671875 -0.765625 -1.671875 -0.765625q-1.0 0 -1.6875 0.765625q-0.671875 0.765625 -0.671875 2.203125zm15.724091 4.84375l0 -1.453125q-0.53125 0.78125 -1.390625 1.234375q-0.859375 0.4375 -1.8125 0.4375q-0.96875 0 -1.75 -0.421875q-0.765625 -0.4375 -1.125 -1.203125q-0.34375 -0.78125 -0.34375 -2.140625l0 -6.125l2.5625 0l0 4.4375q0 2.046875 0.140625 2.515625q0.140625 0.453125 0.515625 0.71875q0.375 0.265625 0.953125 0.265625q0.65625 0 1.171875 -0.359375q0.515625 -0.359375 0.703125 -0.890625q0.203125 -0.53125 0.203125 -2.609375l0 -4.078125l2.546875 0l0 9.671875l-2.375 0zm13.911621 0l-2.390625 0l0 -1.421875q-0.59375 0.828125 -1.40625 1.234375q-0.796875 0.40625 -1.609375 0.40625q-1.671875 0 -2.859375 -1.34375q-1.1875 -1.34375 -1.1875 -3.75q0 -2.453125 1.15625 -3.734375q1.15625 -1.28125 2.921875 -1.28125q1.625 0 2.8125 1.34375l0 -4.8125l2.5625 0l0 13.359375zm-6.84375 -5.046875q0 1.546875 0.4375 2.234375q0.609375 1.015625 1.71875 1.015625q0.890625 0 1.5 -0.75q0.625 -0.765625 0.625 -2.25q0 -1.671875 -0.609375 -2.40625q-0.59375 -0.734375 -1.53125 -0.734375q-0.90625 0 -1.53125 0.734375q-0.609375 0.71875 -0.609375 2.15625z" fill-rule="nonzero"/>
        <path fill="#b7b7b7" d="m37.338375 101.14099l253.22833 0l0 390.14172l-253.22833 0z" fill-rule="evenodd"/>
        <path stroke="#cccccc" stroke-width="2.0" stroke-linejoin="round" stroke-linecap="butt" stroke-dasharray="2.0,6.0" d="m37.338375 101.14099l253.22833 0l0 390.14172l-253.22833 0z" fill-rule="evenodd"/>
        <path fill="#ffffff" d="m101.03076 128.06099l0 -13.359375l4.328125 0q2.453125 0 3.203125 0.203125q1.140625 0.296875 1.921875 1.3125q0.78125 1.0 0.78125 2.59375q0 1.234375 -0.453125 2.078125q-0.453125 0.828125 -1.140625 1.3125q-0.6875 0.46875 -1.390625 0.625q-0.96875 0.203125 -2.796875 0.203125l-1.765625 0l0 5.03125l-2.6875 0zm2.6875 -11.09375l0 3.78125l1.484375 0q1.59375 0 2.125 -0.203125q0.546875 -0.203125 0.84375 -0.65625q0.3125 -0.453125 0.3125 -1.03125q0 -0.734375 -0.4375 -1.203125q-0.421875 -0.484375 -1.078125 -0.59375q-0.484375 -0.09375 -1.9375 -0.09375l-1.3125 0zm12.193573 11.09375l-2.5625 0l0 -9.671875l2.375 0l0 1.375q0.609375 -0.984375 1.09375 -1.28125q0.484375 -0.3125 1.109375 -0.3125q0.875 0 1.6875 0.484375l-0.796875 2.234375q-0.640625 -0.421875 -1.203125 -0.421875q-0.53125 0 -0.90625 0.296875q-0.375 0.296875 -0.59375 1.078125q-0.203125 0.765625 -0.203125 3.234375l0 2.984375zm4.807144 -10.984375l0 -2.375l2.5625 0l0 2.375l-2.5625 0zm0 10.984375l0 -9.671875l2.5625 0l0 9.671875l-2.5625 0zm7.839554 0l-3.90625 -9.671875l2.6875 0l1.828125 4.9375l0.53125 1.640625q0.203125 -0.625 0.265625 -0.828125q0.125 -0.40625 0.265625 -0.8125l1.84375 -4.9375l2.625 0l-3.84375 9.671875l-2.296875 0zm9.625717 -6.71875l-2.328125 -0.421875q0.40625 -1.40625 1.359375 -2.078125q0.953125 -0.671875 2.84375 -0.671875q1.703125 0 2.546875 0.40625q0.84375 0.40625 1.171875 1.03125q0.34375 0.625 0.34375 2.28125l-0.015625 3.0q0 1.265625 0.109375 1.875q0.125 0.609375 0.46875 1.296875l-2.53125 0q-0.109375 -0.25 -0.25 -0.75q-0.0625 -0.234375 -0.09375 -0.3125q-0.65625 0.640625 -1.40625 0.96875q-0.734375 0.3125 -1.59375 0.3125q-1.484375 0 -2.34375 -0.8125q-0.859375 -0.8125 -0.859375 -2.046875q0 -0.828125 0.390625 -1.46875q0.390625 -0.640625 1.09375 -0.96875q0.703125 -0.34375 2.03125 -0.609375q1.796875 -0.328125 2.484375 -0.625l0 -0.25q0 -0.75 -0.359375 -1.0625q-0.359375 -0.3125 -1.375 -0.3125q-0.6875 0 -1.078125 0.28125q-0.375 0.265625 -0.609375 0.9375zm3.421875 2.078125q-0.484375 0.15625 -1.5625 0.390625q-1.0625 0.21875 -1.390625 0.4375q-0.5 0.359375 -0.5 0.90625q0 0.53125 0.40625 0.9375q0.40625 0.390625 1.015625 0.390625q0.703125 0 1.328125 -0.46875q0.46875 -0.34375 0.609375 -0.84375q0.09375 -0.328125 0.09375 -1.25l0 -0.5zm9.485092 -5.03125l0 2.03125l-1.75 0l0 3.90625q0 1.1875 0.046875 1.390625q0.046875 0.1875 0.21875 0.3125q0.1875 0.125 0.4375 0.125q0.359375 0 1.03125 -0.25l0.21875 2.0q-0.890625 0.375 -2.015625 0.375q-0.703125 0 -1.265625 -0.234375q-0.546875 -0.234375 -0.8125 -0.59375q-0.25 -0.375 -0.34375 -1.0q-0.09375 -0.453125 -0.09375 -1.8125l0 -4.21875l-1.171875 0l0 -2.03125l1.171875 0l0 -1.921875l2.578125 -1.5l0 3.421875l1.75 0zm7.368927 6.59375l2.546875 0.421875q-0.484375 1.40625 -1.546875 2.140625q-1.0625 0.734375 -2.65625 0.734375q-2.515625 0 -3.734375 -1.65625q-0.953125 -1.3125 -0.953125 -3.328125q0 -2.40625 1.25 -3.765625q1.265625 -1.359375 3.1875 -1.359375q2.15625 0 3.40625 1.421875q1.25 1.421875 1.1875 4.375l-6.40625 0q0.03125 1.140625 0.609375 1.78125q0.59375 0.625 1.484375 0.625q0.59375 0 1.0 -0.328125q0.421875 -0.328125 0.625 -1.0625zm0.15625 -2.59375q-0.03125 -1.109375 -0.578125 -1.6875q-0.546875 -0.578125 -1.328125 -0.578125q-0.84375 0 -1.390625 0.609375q-0.546875 0.609375 -0.53125 1.65625l3.828125 0zm8.902771 2.90625l2.5625 -0.390625q0.171875 0.75 0.671875 1.140625q0.5 0.390625 1.40625 0.390625q0.984375 0 1.484375 -0.375q0.34375 -0.25 0.34375 -0.671875q0 -0.296875 -0.1875 -0.484375q-0.1875 -0.1875 -0.859375 -0.34375q-3.09375 -0.6875 -3.921875 -1.25q-1.140625 -0.78125 -1.140625 -2.171875q0 -1.265625 0.984375 -2.109375q1.0 -0.859375 3.078125 -0.859375q1.984375 0 2.953125 0.65625q0.96875 0.640625 1.328125 1.90625l-2.40625 0.4375q-0.15625 -0.5625 -0.59375 -0.859375q-0.421875 -0.296875 -1.234375 -0.296875q-1.0 0 -1.4375 0.28125q-0.296875 0.203125 -0.296875 0.515625q0 0.265625 0.25 0.46875q0.34375 0.25 2.390625 0.71875q2.046875 0.453125 2.859375 1.140625q0.796875 0.671875 0.796875 1.890625q0 1.34375 -1.109375 2.296875q-1.109375 0.953125 -3.28125 0.953125q-1.984375 0 -3.140625 -0.796875q-1.140625 -0.8125 -1.5 -2.1875zm17.641342 2.765625l0 -1.453125q-0.53125 0.78125 -1.390625 1.234375q-0.859375 0.4375 -1.8125 0.4375q-0.96875 0 -1.75 -0.421875q-0.765625 -0.4375 -1.125 -1.203125q-0.34375 -0.78125 -0.34375 -2.140625l0 -6.125l2.5625 0l0 4.4375q0 2.046875 0.140625 2.515625q0.140625 0.453125 0.515625 0.71875q0.375 0.265625 0.953125 0.265625q0.65625 0 1.171875 -0.359375q0.515625 -0.359375 0.703125 -0.890625q0.203125 -0.53125 0.203125 -2.609375l0 -4.078125l2.546875 0l0 9.671875l-2.375 0zm4.927231 0l0 -13.359375l2.5625 0l0 4.8125q1.171875 -1.34375 2.796875 -1.34375q1.765625 0 2.921875 1.28125q1.15625 1.28125 1.15625 3.671875q0 2.484375 -1.1875 3.828125q-1.171875 1.328125 -2.859375 1.328125q-0.828125 0 -1.640625 -0.40625q-0.796875 -0.421875 -1.375 -1.234375l0 1.421875l-2.375 0zm2.53125 -5.046875q0 1.5 0.484375 2.21875q0.65625 1.03125 1.765625 1.03125q0.84375 0 1.4375 -0.71875q0.59375 -0.734375 0.59375 -2.296875q0 -1.65625 -0.609375 -2.390625q-0.59375 -0.734375 -1.53125 -0.734375q-0.921875 0 -1.53125 0.71875q-0.609375 0.71875 -0.609375 2.171875zm17.77098 5.046875l-2.5625 0l0 -4.9375q0 -1.5625 -0.171875 -2.015625q-0.15625 -0.46875 -0.53125 -0.71875q-0.359375 -0.265625 -0.875 -0.265625q-0.671875 0 -1.203125 0.375q-0.53125 0.359375 -0.734375 0.96875q-0.1875 0.59375 -0.1875 2.21875l0 4.375l-2.546875 0l0 -9.671875l2.375 0l0 1.421875q1.265625 -1.640625 3.1875 -1.640625q0.84375 0 1.546875 0.3125q0.703125 0.296875 1.0625 0.78125q0.359375 0.46875 0.5 1.078125q0.140625 0.59375 0.140625 1.703125l0 6.015625zm8.192856 -3.078125l2.546875 0.421875q-0.484375 1.40625 -1.546875 2.140625q-1.0625 0.734375 -2.65625 0.734375q-2.515625 0 -3.734375 -1.65625q-0.953125 -1.3125 -0.953125 -3.328125q0 -2.40625 1.25 -3.765625q1.265625 -1.359375 3.1875 -1.359375q2.15625 0 3.40625 1.421875q1.25 1.421875 1.1875 4.375l-6.40625 0q0.03125 1.140625 0.609375 1.78125q0.59375 0.625 1.484375 0.625q0.59375 0 1.0 -0.328125q0.421875 -0.328125 0.625 -1.0625zm0.15625 -2.59375q-0.03125 -1.109375 -0.578125 -1.6875q-0.546875 -0.578125 -1.328125 -0.578125q-0.84375 0 -1.390625 0.609375q-0.546875 0.609375 -0.53125 1.65625l3.828125 0zm9.063217 -4.0l0 2.03125l-1.75 0l0 3.90625q0 1.1875 0.046875 1.390625q0.046875 0.1875 0.21875 0.3125q0.1875 0.125 0.4375 0.125q0.359375 0 1.03125 -0.25l0.21875 2.0q-0.890625 0.375 -2.015625 0.375q-0.703125 0 -1.265625 -0.234375q-0.546875 -0.234375 -0.8125 -0.59375q-0.25 -0.375 -0.34375 -1.0q-0.09375 -0.453125 -0.09375 -1.8125l0 -4.21875l-1.171875 0l0 -2.03125l1.171875 0l0 -1.921875l2.578125 -1.5l0 3.421875l1.75 0z" fill-rule="nonzero"/>
        <path fill="#ffffff" d="m124.614685 150.06099l-2.5625 0l0 -9.640625q-1.40625 1.3125 -3.3125 1.9375l0 -2.328125q1.015625 -0.328125 2.1875 -1.234375q1.171875 -0.921875 1.609375 -2.140625l2.078125 0l0 13.40625zm8.156967 -13.40625q1.9375 0 3.03125 1.375q1.296875 1.640625 1.296875 5.4375q0 3.796875 -1.3125 5.453125q-1.078125 1.375 -3.015625 1.375q-1.953125 0 -3.15625 -1.5q-1.1875 -1.5 -1.1875 -5.34375q0 -3.78125 1.3125 -5.4375q1.078125 -1.359375 3.03125 -1.359375zm0 2.125q-0.46875 0 -0.84375 0.296875q-0.359375 0.296875 -0.5625 1.0625q-0.25 0.984375 -0.25 3.328125q0 2.359375 0.234375 3.234375q0.234375 0.875 0.59375 1.171875q0.359375 0.296875 0.828125 0.296875q0.453125 0 0.8125 -0.296875q0.375 -0.296875 0.578125 -1.0625q0.265625 -0.984375 0.265625 -3.34375q0 -2.34375 -0.25 -3.21875q-0.234375 -0.875 -0.59375 -1.171875q-0.359375 -0.296875 -0.8125 -0.296875zm6.594467 11.28125l0 -2.5625l2.5625 0l0 2.5625l-2.5625 0zm8.964554 -13.40625q1.9375 0 3.03125 1.375q1.296875 1.640625 1.296875 5.4375q0 3.796875 -1.3125 5.453125q-1.078125 1.375 -3.015625 1.375q-1.953125 0 -3.15625 -1.5q-1.1875 -1.5 -1.1875 -5.34375q0 -3.78125 1.3125 -5.4375q1.078125 -1.359375 3.03125 -1.359375zm0 2.125q-0.46875 0 -0.84375 0.296875q-0.359375 0.296875 -0.5625 1.0625q-0.25 0.984375 -0.25 3.328125q0 2.359375 0.234375 3.234375q0.234375 0.875 0.59375 1.171875q0.359375 0.296875 0.828125 0.296875q0.453125 0 0.8125 -0.296875q0.375 -0.296875 0.578125 -1.0625q0.265625 -0.984375 0.265625 -3.34375q0 -2.34375 -0.25 -3.21875q-0.234375 -0.875 -0.59375 -1.171875q-0.359375 -0.296875 -0.8125 -0.296875zm6.594467 11.28125l0 -2.5625l2.5625 0l0 2.5625l-2.5625 0zm8.964554 -13.40625q1.9375 0 3.03125 1.375q1.296875 1.640625 1.296875 5.4375q0 3.796875 -1.3125 5.453125q-1.078125 1.375 -3.015625 1.375q-1.953125 0 -3.15625 -1.5q-1.1875 -1.5 -1.1875 -5.34375q0 -3.78125 1.3125 -5.4375q1.078125 -1.359375 3.03125 -1.359375zm0 2.125q-0.46875 0 -0.84375 0.296875q-0.359375 0.296875 -0.5625 1.0625q-0.25 0.984375 -0.25 3.328125q0 2.359375 0.234375 3.234375q0.234375 0.875 0.59375 1.171875q0.359375 0.296875 0.828125 0.296875q0.453125 0 0.8125 -0.296875q0.375 -0.296875 0.578125 -1.0625q0.265625 -0.984375 0.265625 -3.34375q0 -2.34375 -0.25 -3.21875q-0.234375 -0.875 -0.59375 -1.171875q-0.359375 -0.296875 -0.8125 -0.296875zm6.594467 11.28125l0 -2.5625l2.5625 0l0 2.5625l-2.5625 0zm8.964554 -13.40625q1.9375 0 3.03125 1.375q1.296875 1.640625 1.296875 5.4375q0 3.796875 -1.3125 5.453125q-1.078125 1.375 -3.015625 1.375q-1.953125 0 -3.15625 -1.5q-1.1875 -1.5 -1.1875 -5.34375q0 -3.78125 1.3125 -5.4375q1.078125 -1.359375 3.03125 -1.359375zm0 2.125q-0.46875 0 -0.84375 0.296875q-0.359375 0.296875 -0.5625 1.0625q-0.25 0.984375 -0.25 3.328125q0 2.359375 0.234375 3.234375q0.234375 0.875 0.59375 1.171875q0.359375 0.296875 0.828125 0.296875q0.453125 0 0.8125 -0.296875q0.375 -0.296875 0.578125 -1.0625q0.265625 -0.984375 0.265625 -3.34375q0 -2.34375 -0.25 -3.21875q-0.234375 -0.875 -0.59375 -1.171875q-0.359375 -0.296875 -0.8125 -0.296875zm5.219467 11.515625l3.3125 -13.8125l1.921875 0l-3.34375 13.8125l-1.890625 0zm14.652054 -2.609375l0 2.375l-8.96875 0q0.140625 -1.34375 0.859375 -2.546875q0.734375 -1.21875 2.890625 -3.203125q1.734375 -1.625 2.125 -2.1875q0.53125 -0.796875 0.53125 -1.578125q0 -0.84375 -0.46875 -1.296875q-0.453125 -0.46875 -1.265625 -0.46875q-0.796875 0 -1.28125 0.484375q-0.46875 0.46875 -0.546875 1.59375l-2.546875 -0.25q0.234375 -2.109375 1.421875 -3.03125q1.203125 -0.921875 3.015625 -0.921875q1.96875 0 3.09375 1.0625q1.140625 1.0625 1.140625 2.65625q0 0.890625 -0.328125 1.71875q-0.3125 0.8125 -1.015625 1.703125q-0.46875 0.59375 -1.6875 1.703125q-1.203125 1.109375 -1.53125 1.484375q-0.3125 0.359375 -0.515625 0.703125l5.078125 0zm1.7350922 -8.421875l0 -2.375l8.75 0l0 1.859375q-1.078125 1.0625 -2.203125 3.0625q-1.125 1.984375 -1.71875 4.234375q-0.578125 2.25 -0.5625 4.015625l-2.46875 0q0.0625 -2.765625 1.140625 -5.640625q1.078125 -2.890625 2.875 -5.15625l-5.8125 0z" fill-rule="nonzero"/>
        <path fill="#93c47d" d="m378.12122 101.14099l253.22833 0l0 390.14172l-253.22833 0z" fill-rule="evenodd"/>
        <path stroke="#cccccc" stroke-width="2.0" stroke-linejoin="round" stroke-linecap="butt" stroke-dasharray="2.0,6.0" d="m378.12122 101.14099l253.22833 0l0 390.14172l-253.22833 0z" fill-rule="evenodd"/>
        <path fill="#ffffff" d="m444.93817 128.06099l0 -13.359375l4.328125 0q2.453125 0 3.203125 0.203125q1.140625 0.296875 1.921875 1.3125q0.78125 1.0 0.78125 2.59375q0 1.234375 -0.453125 2.078125q-0.453125 0.828125 -1.140625 1.3125q-0.6875 0.46875 -1.390625 0.625q-0.96875 0.203125 -2.796875 0.203125l-1.765625 0l0 5.03125l-2.6875 0zm2.6875 -11.09375l0 3.78125l1.484375 0q1.59375 0 2.125 -0.203125q0.546875 -0.203125 0.84375 -0.65625q0.3125 -0.453125 0.3125 -1.03125q0 -0.734375 -0.4375 -1.203125q-0.421875 -0.484375 -1.078125 -0.59375q-0.484375 -0.09375 -1.9375 -0.09375l-1.3125 0zm16.099823 11.09375l0 -1.453125q-0.53125 0.78125 -1.390625 1.234375q-0.859375 0.4375 -1.8125 0.4375q-0.96875 0 -1.75 -0.421875q-0.765625 -0.4375 -1.125 -1.203125q-0.34375 -0.78125 -0.34375 -2.140625l0 -6.125l2.5625 0l0 4.4375q0 2.046875 0.140625 2.515625q0.140625 0.453125 0.515625 0.71875q0.375 0.265625 0.953125 0.265625q0.65625 0 1.171875 -0.359375q0.515625 -0.359375 0.703125 -0.890625q0.203125 -0.53125 0.203125 -2.609375l0 -4.078125l2.546875 0l0 9.671875l-2.375 0zm4.9272156 0l0 -13.359375l2.5625 0l0 4.8125q1.171875 -1.34375 2.796875 -1.34375q1.765625 0 2.921875 1.28125q1.15625 1.28125 1.15625 3.671875q0 2.484375 -1.1875 3.828125q-1.171875 1.328125 -2.859375 1.328125q-0.828125 0 -1.640625 -0.40625q-0.796875 -0.421875 -1.375 -1.234375l0 1.421875l-2.375 0zm2.53125 -5.046875q0 1.5 0.484375 2.21875q0.65625 1.03125 1.765625 1.03125q0.84375 0 1.4375 -0.71875q0.59375 -0.734375 0.59375 -2.296875q0 -1.65625 -0.609375 -2.390625q-0.59375 -0.734375 -1.53125 -0.734375q-0.921875 0 -1.53125 0.71875q-0.609375 0.71875 -0.609375 2.171875zm8.974121 5.046875l0 -13.359375l2.5625 0l0 13.359375l-2.5625 0zm5.1832886 -10.984375l0 -2.375l2.5625 0l0 2.375l-2.5625 0zm0 10.984375l0 -9.671875l2.5625 0l0 9.671875l-2.5625 0zm13.620819 -6.8125l-2.53125 0.453125q-0.125 -0.75 -0.578125 -1.125q-0.453125 -0.390625 -1.171875 -0.390625q-0.953125 0 -1.53125 0.65625q-0.5625 0.65625 -0.5625 2.203125q0 1.734375 0.578125 2.4375q0.578125 0.703125 1.546875 0.703125q0.734375 0 1.203125 -0.40625q0.46875 -0.421875 0.65625 -1.421875l2.515625 0.421875q-0.390625 1.734375 -1.515625 2.625q-1.109375 0.875 -2.96875 0.875q-2.125 0 -3.390625 -1.328125q-1.25 -1.34375 -1.25 -3.71875q0 -2.390625 1.265625 -3.71875q1.265625 -1.34375 3.421875 -1.34375q1.765625 0 2.796875 0.765625q1.046875 0.75 1.515625 2.3125zm6.215271 4.046875l2.5625 -0.390625q0.171875 0.75 0.671875 1.140625q0.5 0.390625 1.40625 0.390625q0.984375 0 1.484375 -0.375q0.34375 -0.25 0.34375 -0.671875q0 -0.296875 -0.1875 -0.484375q-0.1875 -0.1875 -0.859375 -0.34375q-3.09375 -0.6875 -3.921875 -1.25q-1.140625 -0.78125 -1.140625 -2.171875q0 -1.265625 0.984375 -2.109375q1.0 -0.859375 3.078125 -0.859375q1.984375 0 2.9530945 0.65625q0.96875 0.640625 1.328125 1.90625l-2.4062195 0.4375q-0.15625 -0.5625 -0.59375 -0.859375q-0.421875 -0.296875 -1.234375 -0.296875q-1.0 0 -1.4375 0.28125q-0.296875 0.203125 -0.296875 0.515625q0 0.265625 0.25 0.46875q0.34375 0.25 2.390625 0.71875q2.0468445 0.453125 2.8593445 1.140625q0.796875 0.671875 0.796875 1.890625q0 1.34375 -1.109375 2.296875q-1.1093445 0.953125 -3.2812195 0.953125q-1.984375 0 -3.140625 -0.796875q-1.140625 -0.8125 -1.5 -2.1875zm17.641327 2.765625l0 -1.453125q-0.53125 0.78125 -1.390625 1.234375q-0.859375 0.4375 -1.8125 0.4375q-0.96875 0 -1.75 -0.421875q-0.765625 -0.4375 -1.125 -1.203125q-0.34375 -0.78125 -0.34375 -2.140625l0 -6.125l2.5625 0l0 4.4375q0 2.046875 0.140625 2.515625q0.140625 0.453125 0.515625 0.71875q0.375 0.265625 0.953125 0.265625q0.65625 0 1.171875 -0.359375q0.515625 -0.359375 0.703125 -0.890625q0.203125 -0.53125 0.203125 -2.609375l0 -4.078125l2.546875 0l0 9.671875l-2.375 0zm4.927246 0l0 -13.359375l2.5625 0l0 4.8125q1.171875 -1.34375 2.796875 -1.34375q1.765625 0 2.921875 1.28125q1.15625 1.28125 1.15625 3.671875q0 2.484375 -1.1875 3.828125q-1.171875 1.328125 -2.859375 1.328125q-0.828125 0 -1.640625 -0.40625q-0.796875 -0.421875 -1.375 -1.234375l0 1.421875l-2.375 0zm2.53125 -5.046875q0 1.5 0.484375 2.21875q0.65625 1.03125 1.765625 1.03125q0.84375 0 1.4375 -0.71875q0.59375 -0.734375 0.59375 -2.296875q0 -1.65625 -0.609375 -2.390625q-0.59375 -0.734375 -1.53125 -0.734375q-0.921875 0 -1.53125 0.71875q-0.609375 0.71875 -0.609375 2.171875zm17.770996 5.046875l-2.5625 0l0 -4.9375q0 -1.5625 -0.171875 -2.015625q-0.15625 -0.46875 -0.53125 -0.71875q-0.359375 -0.265625 -0.875 -0.265625q-0.671875 0 -1.203125 0.375q-0.53125 0.359375 -0.734375 0.96875q-0.1875 0.59375 -0.1875 2.21875l0 4.375l-2.546875 0l0 -9.671875l2.375 0l0 1.421875q1.265625 -1.640625 3.1875 -1.640625q0.84375 0 1.546875 0.3125q0.703125 0.296875 1.0625 0.78125q0.359375 0.46875 0.5 1.078125q0.140625 0.59375 0.140625 1.703125l0 6.015625zm8.19281 -3.078125l2.546875 0.421875q-0.484375 1.40625 -1.546875 2.140625q-1.0625 0.734375 -2.65625 0.734375q-2.515625 0 -3.734375 -1.65625q-0.953125 -1.3125 -0.953125 -3.328125q0 -2.40625 1.25 -3.765625q1.265625 -1.359375 3.1875 -1.359375q2.15625 0 3.40625 1.421875q1.25 1.421875 1.1875 4.375l-6.40625 0q0.03125 1.140625 0.609375 1.78125q0.59375 0.625 1.484375 0.625q0.59375 0 1.0 -0.328125q0.421875 -0.328125 0.625 -1.0625zm0.15625 -2.59375q-0.03125 -1.109375 -0.578125 -1.6875q-0.546875 -0.578125 -1.328125 -0.578125q-0.84375 0 -1.390625 0.609375q-0.546875 0.609375 -0.53125 1.65625l3.828125 0zm9.063232 -4.0l0 2.03125l-1.75 0l0 3.90625q0 1.1875 0.046875 1.390625q0.046875 0.1875 0.21875 0.3125q0.1875 0.125 0.4375 0.125q0.359375 0 1.03125 -0.25l0.21875 2.0q-0.890625 0.375 -2.015625 0.375q-0.703125 0 -1.265625 -0.234375q-0.546875 -0.234375 -0.8125 -0.59375q-0.25 -0.375 -0.34375 -1.0q-0.09375 -0.453125 -0.09375 -1.8125l0 -4.21875l-1.171875 0l0 -2.03125l1.171875 0l0 -1.921875l2.578125 -1.5l0 3.421875l1.75 0z" fill-rule="nonzero"/>
        <path fill="#e69138" d="m434.8038 227.33064l139.84256 0l0 137.73228l-139.84256 0z" fill-rule="evenodd"/>
        <path stroke="#cccccc" stroke-width="2.0" stroke-linejoin="round" stroke-linecap="butt" stroke-dasharray="2.0,6.0" d="m434.8038 227.33064l139.84256 0l0 137.73228l-139.84256 0z" fill-rule="evenodd"/>
        <path fill="#ffffff" d="m486.94476 254.25064l0 -13.359375l2.625 0l5.453125 8.921875l0 -8.921875l2.515625 0l0 13.359375l-2.703125 0l-5.390625 -8.703125l0 8.703125l-2.5 0zm25.488586 0l-2.9375305 0l-1.171875 -3.03125l-5.328125 0l-1.109375 3.03125l-2.859375 0l5.203125 -13.359375l2.84375 0l5.3594055 13.359375zm-4.9687805 -5.28125l-1.84375 -4.953125l-1.796875 4.953125l3.640625 0zm9.394806 5.28125l0 -11.09375l-3.953125 0l0 -2.265625l10.609375 0l0 2.265625l-3.953125 0l0 11.09375l-2.703125 0z" fill-rule="nonzero"/>
        <path fill="#ffffff" d="m461.4471 297.48877l-1.390625 0q-1.09375 -1.640625 -1.671875 -3.421875q-0.5625 -1.78125 -0.5625 -3.453125q0 -2.078125 0.703125 -3.921875q0.625 -1.59375 1.5625 -2.953125l1.375 0q-0.984375 2.171875 -1.359375 3.703125q-0.359375 1.515625 -0.359375 3.21875q0 1.171875 0.21875 2.40625q0.21875 1.21875 0.59375 2.328125q0.25 0.734375 0.890625 2.09375zm1.0368958 -5.859375l1.953125 -0.234375q0.09375 0.734375 0.5 1.140625q0.40625 0.390625 0.984375 0.390625q0.625 0 1.046875 -0.46875q0.421875 -0.484375 0.421875 -1.28125q0 -0.765625 -0.40625 -1.203125q-0.40625 -0.4375 -0.984375 -0.4375q-0.390625 0 -0.921875 0.140625l0.21875 -1.640625q0.8125 0.03125 1.234375 -0.34375q0.4375 -0.375 0.4375 -1.0q0 -0.53125 -0.3125 -0.84375q-0.3125 -0.3125 -0.84375 -0.3125q-0.515625 0 -0.875 0.359375q-0.359375 0.34375 -0.4375 1.03125l-1.859375 -0.3125q0.1875 -0.953125 0.578125 -1.515625q0.390625 -0.578125 1.078125 -0.890625q0.703125 -0.328125 1.578125 -0.328125q1.484375 0 2.375 0.9375q0.734375 0.78125 0.734375 1.75q0 1.375 -1.515625 2.203125q0.90625 0.1875 1.4375 0.875q0.546875 0.671875 0.546875 1.609375q0 1.390625 -1.015625 2.359375q-1.0 0.96875 -2.5 0.96875q-1.421875 0 -2.359375 -0.8125q-0.9375 -0.8125 -1.09375 -2.140625zm15.010468 0.90625l0 1.875l-7.046875 0q0.125 -1.0625 0.6875 -2.0q0.578125 -0.953125 2.265625 -2.515625q1.359375 -1.28125 1.671875 -1.71875q0.40625 -0.625 0.40625 -1.234375q0 -0.671875 -0.359375 -1.03125q-0.359375 -0.359375 -1.0 -0.359375q-0.625 0 -1.0 0.375q-0.375 0.375 -0.421875 1.25l-2.015625 -0.1875q0.1875 -1.671875 1.125 -2.390625q0.953125 -0.71875 2.375 -0.71875q1.546875 0 2.421875 0.84375q0.890625 0.828125 0.890625 2.078125q0 0.703125 -0.25 1.34375q-0.25 0.640625 -0.796875 1.34375q-0.375 0.46875 -1.328125 1.34375q-0.9375 0.859375 -1.203125 1.15625q-0.25 0.28125 -0.40625 0.546875l3.984375 0zm1.791748 1.875l0 -2.015625l2.015625 0l0 2.015625l-2.015625 0zm8.79071 0l-2.015625 0l0 -7.578125q-1.09375 1.03125 -2.59375 1.53125l0 -1.828125q0.796875 -0.265625 1.71875 -0.984375q0.921875 -0.71875 1.265625 -1.671875l1.625 0l0 10.53125zm9.822998 -7.921875l-1.953125 0.21875q-0.0625 -0.609375 -0.375 -0.890625q-0.296875 -0.28125 -0.765625 -0.28125q-0.640625 0 -1.09375 0.578125q-0.4375 0.5625 -0.546875 2.375q0.75 -0.890625 1.875 -0.890625q1.25 0 2.140625 0.96875q0.90625 0.953125 0.90625 2.46875q0 1.609375 -0.953125 2.578125q-0.9375 0.96875 -2.40625 0.96875q-1.59375 0 -2.625 -1.234375q-1.015625 -1.234375 -1.015625 -4.046875q0 -2.875 1.0625 -4.140625q1.0625 -1.28125 2.765625 -1.28125q1.203125 0 1.984375 0.671875q0.78125 0.65625 1.0 1.9375zm-4.5625 4.390625q0 0.96875 0.453125 1.515625q0.453125 0.53125 1.03125 0.53125q0.5625 0 0.921875 -0.4375q0.375 -0.4375 0.375 -1.4375q0 -1.015625 -0.40625 -1.484375q-0.390625 -0.484375 -0.984375 -0.484375q-0.59375 0 -1.0 0.453125q-0.390625 0.453125 -0.390625 1.34375zm7.6198425 -2.125q-0.78125 -0.328125 -1.140625 -0.90625q-0.34375 -0.578125 -0.34375 -1.265625q0 -1.171875 0.8125 -1.9375q0.828125 -0.765625 2.328125 -0.765625q1.5 0 2.328125 0.765625q0.828125 0.765625 0.828125 1.9375q0 0.734375 -0.390625 1.296875q-0.375 0.5625 -1.0625 0.875q0.875 0.34375 1.328125 1.015625q0.46875 0.671875 0.46875 1.5625q0 1.453125 -0.9375 2.359375q-0.921875 0.90625 -2.46875 0.90625q-1.421875 0 -2.375 -0.75q-1.125 -0.890625 -1.125 -2.4375q0 -0.84375 0.421875 -1.5625q0.421875 -0.71875 1.328125 -1.09375zm0.421875 -2.03125q0 0.609375 0.328125 0.953125q0.34375 0.328125 0.90625 0.328125q0.578125 0 0.921875 -0.34375q0.34375 -0.34375 0.34375 -0.9375q0 -0.578125 -0.34375 -0.90625q-0.328125 -0.34375 -0.890625 -0.34375q-0.578125 0 -0.921875 0.34375q-0.34375 0.34375 -0.34375 0.90625zm-0.1875 4.5q0 0.828125 0.421875 1.296875q0.421875 0.453125 1.0625 0.453125q0.625 0 1.03125 -0.4375q0.40625 -0.453125 0.40625 -1.296875q0 -0.734375 -0.421875 -1.171875q-0.40625 -0.453125 -1.046875 -0.453125q-0.734375 0 -1.09375 0.515625q-0.359375 0.5 -0.359375 1.09375zm6.619873 3.1875l0 -2.015625l2.015625 0l0 2.015625l-2.015625 0zm3.6969604 -2.421875l1.9375 -0.21875q0.078125 0.59375 0.375 0.890625q0.296875 0.28125 0.796875 0.28125q0.625 0 1.0625 -0.578125q0.4375 -0.578125 0.546875 -2.375q-0.75 0.875 -1.890625 0.875q-1.234375 0 -2.140625 -0.953125q-0.890625 -0.953125 -0.890625 -2.484375q0 -1.59375 0.9375 -2.5625q0.953125 -0.984375 2.421875 -0.984375q1.59375 0 2.609375 1.234375q1.03125 1.234375 1.03125 4.0625q0 2.875 -1.0625 4.15625q-1.0625 1.265625 -2.78125 1.265625q-1.234375 0 -2.0 -0.65625q-0.75 -0.65625 -0.953125 -1.953125zm4.546875 -4.390625q0 -0.984375 -0.453125 -1.515625q-0.4375 -0.53125 -1.03125 -0.53125q-0.5625 0 -0.9375 0.4375q-0.359375 0.4375 -0.359375 1.4375q0 1.015625 0.390625 1.5q0.40625 0.46875 1.015625 0.46875q0.578125 0 0.96875 -0.453125q0.40625 -0.46875 0.40625 -1.34375zm10.338623 4.9375l0 1.875l-7.046875 0q0.125 -1.0625 0.6875 -2.0q0.578125 -0.953125 2.265625 -2.515625q1.359375 -1.28125 1.671875 -1.71875q0.40625 -0.625 0.40625 -1.234375q0 -0.671875 -0.359375 -1.03125q-0.359375 -0.359375 -1.0 -0.359375q-0.625 0 -1.0 0.375q-0.375 0.375 -0.421875 1.25l-2.015625 -0.1875q0.1875 -1.671875 1.125 -2.390625q0.953125 -0.71875 2.375 -0.71875q1.546875 0 2.421875 0.84375q0.890625 0.828125 0.890625 2.078125q0 0.703125 -0.25 1.34375q-0.25 0.640625 -0.796875 1.34375q-0.375 0.46875 -1.328125 1.34375q-0.9375 0.859375 -1.203125 1.15625q-0.25 0.28125 -0.40625 0.546875l3.984375 0zm1.791748 1.875l0 -2.015625l2.015625 0l0 2.015625l-2.015625 0zm8.79071 0l-2.015625 0l0 -7.578125q-1.09375 1.03125 -2.59375 1.53125l0 -1.828125q0.796875 -0.265625 1.71875 -0.984375q0.921875 -0.71875 1.265625 -1.671875l1.625 0l0 10.53125zm9.791748 -1.875l0 1.875l-7.046875 0q0.125 -1.0625 0.6875 -2.0q0.578125 -0.953125 2.265625 -2.515625q1.359375 -1.28125 1.671875 -1.71875q0.40625 -0.625 0.40625 -1.234375q0 -0.671875 -0.359375 -1.03125q-0.359375 -0.359375 -1.0 -0.359375q-0.625 0 -1.0 0.375q-0.375 0.375 -0.421875 1.25l-2.015625 -0.1875q0.1875 -1.671875 1.125 -2.390625q0.953125 -0.71875 2.375 -0.71875q1.546875 0 2.421875 0.84375q0.890625 0.828125 0.890625 2.078125q0 0.703125 -0.25 1.34375q-0.25 0.640625 -0.796875 1.34375q-0.375 0.46875 -1.328125 1.34375q-0.9375 0.859375 -1.203125 1.15625q-0.25 0.28125 -0.40625 0.546875l3.984375 0zm1.244812 4.953125q0.59375 -1.265625 0.828125 -1.953125q0.25 -0.671875 0.453125 -1.5625q0.203125 -0.890625 0.296875 -1.6875q0.109375 -0.796875 0.109375 -1.625q0 -1.703125 -0.375 -3.21875q-0.359375 -1.53125 -1.328125 -3.703125l1.359375 0q1.078125 1.546875 1.671875 3.265625q0.609375 1.71875 0.609375 3.5q0 1.5 -0.46875 3.203125q-0.546875 1.921875 -1.78125 3.78125l-1.375 0z" fill-rule="nonzero"/>
        <path fill="tomato" d="m174.97575 212.87595l94.45668 0l0 88.62991l-94.45668 0z" fill-rule="evenodd"/>
        <path fill="#ffffff" d="m203.36842 261.9909l-1.828125 0l0 -6.890625q-1.0 0.9375 -2.375 1.390625l0 -1.671875q0.71875 -0.234375 1.5625 -0.875q0.84375 -0.65625 1.15625 -1.53125l1.484375 0l0 9.578125zm5.8187256 -9.578125q1.390625 0 2.171875 0.984375q0.921875 1.171875 0.921875 3.890625q0 2.703125 -0.9375 3.890625q-0.765625 0.96875 -2.15625 0.96875q-1.390625 0 -2.25 -1.0625q-0.84375 -1.078125 -0.84375 -3.8125q0 -2.703125 0.9375 -3.890625q0.765625 -0.96875 2.15625 -0.96875zm0 1.515625q-0.328125 0 -0.59375 0.21875q-0.25 0.203125 -0.40625 0.75q-0.1875 0.703125 -0.1875 2.390625q0 1.671875 0.171875 2.3125q0.171875 0.625 0.421875 0.828125q0.265625 0.203125 0.59375 0.203125q0.328125 0 0.59375 -0.203125q0.265625 -0.21875 0.40625 -0.765625q0.1875 -0.703125 0.1875 -2.375q0 -1.6875 -0.171875 -2.3125q-0.171875 -0.625 -0.4375 -0.828125q-0.25 -0.21875 -0.578125 -0.21875zm4.7093506 8.0625l0 -1.828125l1.828125 0l0 1.828125l-1.828125 0zm6.4061127 -9.578125q1.390625 0 2.171875 0.984375q0.921875 1.171875 0.921875 3.890625q0 2.703125 -0.9375 3.890625q-0.765625 0.96875 -2.15625 0.96875q-1.390625 0 -2.25 -1.0625q-0.84375 -1.078125 -0.84375 -3.8125q0 -2.703125 0.9375 -3.890625q0.765625 -0.96875 2.15625 -0.96875zm0 1.515625q-0.328125 0 -0.59375 0.21875q-0.25 0.203125 -0.40625 0.75q-0.1875 0.703125 -0.1875 2.390625q0 1.671875 0.171875 2.3125q0.171875 0.625 0.421875 0.828125q0.265625 0.203125 0.59375 0.203125q0.328125 0 0.59375 -0.203125q0.265625 -0.21875 0.40625 -0.765625q0.1875 -0.703125 0.1875 -2.375q0 -1.6875 -0.171875 -2.3125q-0.171875 -0.625 -0.4375 -0.828125q-0.25 -0.21875 -0.578125 -0.21875zm4.7093506 8.0625l0 -1.828125l1.828125 0l0 1.828125l-1.828125 0zm6.4061127 -9.578125q1.390625 0 2.171875 0.984375q0.921875 1.171875 0.921875 3.890625q0 2.703125 -0.9375 3.890625q-0.765625 0.96875 -2.15625 0.96875q-1.390625 0 -2.25 -1.0625q-0.84375 -1.078125 -0.84375 -3.8125q0 -2.703125 0.9375 -3.890625q0.765625 -0.96875 2.15625 -0.96875zm0 1.515625q-0.328125 0 -0.59375 0.21875q-0.25 0.203125 -0.40625 0.75q-0.1875 0.703125 -0.1875 2.390625q0 1.671875 0.171875 2.3125q0.171875 0.625 0.421875 0.828125q0.265625 0.203125 0.59375 0.203125q0.328125 0 0.59375 -0.203125q0.265625 -0.21875 0.40625 -0.765625q0.1875 -0.703125 0.1875 -2.375q0 -1.6875 -0.171875 -2.3125q-0.171875 -0.625 -0.4375 -0.828125q-0.25 -0.21875 -0.578125 -0.21875zm4.7093506 8.0625l0 -1.828125l1.828125 0l0 1.828125l-1.828125 0zm3.3436127 -2.453125l1.828125 -0.1875q0.078125 0.609375 0.453125 0.984375q0.390625 0.359375 0.890625 0.359375q0.5625 0 0.953125 -0.46875q0.40625 -0.46875 0.40625 -1.40625q0 -0.875 -0.390625 -1.3125q-0.390625 -0.4375 -1.03125 -0.4375q-0.78125 0 -1.40625 0.6875l-1.484375 -0.203125l0.9375 -4.96875l4.84375 0l0 1.703125l-3.453125 0l-0.296875 1.625q0.625 -0.3125 1.25 -0.3125q1.21875 0 2.0625 0.890625q0.859375 0.890625 0.859375 2.296875q0 1.171875 -0.6875 2.109375q-0.9375 1.25 -2.59375 1.25q-1.3125 0 -2.15625 -0.703125q-0.828125 -0.703125 -0.984375 -1.90625z" fill-rule="nonzero"/>
        <path fill="steelblue" d="m174.97575 346.12265l94.45668 0l0 88.629944l-94.45668 0z" fill-rule="evenodd"/>
        <path fill="#ffffff" d="m203.36842 395.2376l-1.828125 0l0 -6.890625q-1.0 0.9375 -2.375 1.390625l0 -1.671875q0.71875 -0.234375 1.5625 -0.875q0.84375 -0.65625 1.15625 -1.53125l1.484375 0l0 9.578125zm5.8187256 -9.578125q1.390625 0 2.171875 0.984375q0.921875 1.171875 0.921875 3.890625q0 2.703125 -0.9375 3.890625q-0.765625 0.96875 -2.15625 0.96875q-1.390625 0 -2.25 -1.0625q-0.84375 -1.078125 -0.84375 -3.8125q0 -2.703125 0.9375 -3.890625q0.765625 -0.96875 2.15625 -0.96875zm0 1.515625q-0.328125 0 -0.59375 0.21875q-0.25 0.203125 -0.40625 0.75q-0.1875 0.703125 -0.1875 2.390625q0 1.671875 0.171875 2.3125q0.171875 0.625 0.421875 0.828125q0.265625 0.203125 0.59375 0.203125q0.328125 0 0.59375 -0.203125q0.265625 -0.21875 0.40625 -0.765625q0.1875 -0.703125 0.1875 -2.375q0 -1.6875 -0.171875 -2.3125q-0.171875 -0.625 -0.4375 -0.828125q-0.25 -0.21875 -0.578125 -0.21875zm4.7093506 8.0625l0 -1.828125l1.828125 0l0 1.828125l-1.828125 0zm6.4061127 -9.578125q1.390625 0 2.171875 0.984375q0.921875 1.171875 0.921875 3.890625q0 2.703125 -0.9375 3.890625q-0.765625 0.96875 -2.15625 0.96875q-1.390625 0 -2.25 -1.0625q-0.84375 -1.078125 -0.84375 -3.8125q0 -2.703125 0.9375 -3.890625q0.765625 -0.96875 2.15625 -0.96875zm0 1.515625q-0.328125 0 -0.59375 0.21875q-0.25 0.203125 -0.40625 0.75q-0.1875 0.703125 -0.1875 2.390625q0 1.671875 0.171875 2.3125q0.171875 0.625 0.421875 0.828125q0.265625 0.203125 0.59375 0.203125q0.328125 0 0.59375 -0.203125q0.265625 -0.21875 0.40625 -0.765625q0.1875 -0.703125 0.1875 -2.375q0 -1.6875 -0.171875 -2.3125q-0.171875 -0.625 -0.4375 -0.828125q-0.25 -0.21875 -0.578125 -0.21875zm4.7093506 8.0625l0 -1.828125l1.828125 0l0 1.828125l-1.828125 0zm6.4061127 -9.578125q1.390625 0 2.171875 0.984375q0.921875 1.171875 0.921875 3.890625q0 2.703125 -0.9375 3.890625q-0.765625 0.96875 -2.15625 0.96875q-1.390625 0 -2.25 -1.0625q-0.84375 -1.078125 -0.84375 -3.8125q0 -2.703125 0.9375 -3.890625q0.765625 -0.96875 2.15625 -0.96875zm0 1.515625q-0.328125 0 -0.59375 0.21875q-0.25 0.203125 -0.40625 0.75q-0.1875 0.703125 -0.1875 2.390625q0 1.671875 0.171875 2.3125q0.171875 0.625 0.421875 0.828125q0.265625 0.203125 0.59375 0.203125q0.328125 0 0.59375 -0.203125q0.265625 -0.21875 0.40625 -0.765625q0.1875 -0.703125 0.1875 -2.375q0 -1.6875 -0.171875 -2.3125q-0.171875 -0.625 -0.4375 -0.828125q-0.25 -0.21875 -0.578125 -0.21875zm4.7093506 8.0625l0 -1.828125l1.828125 0l0 1.828125l-1.828125 0zm3.3123627 -7.71875l0 -1.6875l6.25 0l0 1.328125q-0.765625 0.75 -1.578125 2.1875q-0.796875 1.421875 -1.21875 3.03125q-0.40625 1.59375 -0.40625 2.859375l-1.765625 0q0.046875 -1.984375 0.8125 -4.03125q0.78125 -2.0625 2.0625 -3.6875l-4.15625 0z" fill-rule="nonzero"/>
        <path fill="#000000" fill-opacity="0.0" d="m269.43243 257.19092l165.38583 38.992126" fill-rule="evenodd"/>
        <path id="instance1-to-nat" stroke="#000000" stroke-width="1.0" stroke-linejoin="round" stroke-linecap="butt" d="m269.43243 257.19092l165.38583 38.992126" fill-rule="evenodd"/>
        <path id="instance2-to-nat" fill="#000000" fill-opacity="0.0" d="m269.43243 390.43762l165.38583 -94.236206" fill-rule="evenodd"/>
        <path stroke="#000000" stroke-width="1.0" stroke-linejoin="round" stroke-linecap="butt" d="m269.43243 390.43762l165.38583 -94.236206" fill-rule="evenodd"/>
        <path fill="#3c78d8" d="m767.8638 271.05392l0 0c-1.6988525 -12.120636 3.8788452 -24.119339 14.366333 -30.904602c10.487488 -6.785263 24.04541 -7.1671143 34.920715 -0.98350525l0 0c3.852356 -7.0474396 10.90332 -11.913223 19.02002 -13.125519c8.11676 -1.2122955 16.346008 1.3712616 22.198486 6.969208l0 0c3.2817383 -6.3896637 9.725464 -10.682709 17.044556 -11.355728c7.319153 -0.6730194 14.477905 2.3692322 18.935913 8.047195l0 0c5.928894 -6.7730255 15.361938 -9.624741 24.217346 -7.321213c8.855469 2.3035278 15.542786 9.348587 17.168335 18.086731l0 0c7.263916 1.9235687 13.314575 6.8135376 16.588745 13.406494c3.27417 6.5929565 3.4505615 14.242126 0.4837036 20.971252l0 0c7.152832 9.037933 8.826111 21.080872 4.3952637 31.634613c-4.430786 10.553711 -14.299927 18.032654 -25.924377 19.645813c-0.081970215 9.90506 -5.677368 18.993835 -14.629578 23.763092c-8.952209 4.7692566 -19.863281 4.4742737 -28.527588 -0.77124023c-3.6904907 11.863007 -14.078125 20.591705 -26.675049 22.414948c-12.596863 1.8232727 -25.144714 -3.585785 -32.222473 -13.890198c-8.675842 5.079071 -19.086182 6.542206 -28.882568 4.0592957c-9.796387 -2.4828796 -18.153625 -8.702637 -23.186584 -17.256195l0 0c-8.865601 1.0072021 -17.437439 -3.4521484 -21.461304 -11.164886c-4.023926 -7.712738 -2.6432495 -17.037018 3.456787 -23.345215l0 0c-7.908386 -4.5188904 -11.943726 -13.48587 -10.001709 -22.225037c1.9419556 -8.739136 9.421204 -15.270142 18.537537 -16.187286z" fill-rule="evenodd"/>
        <path fill="#000000" fill-opacity="0.0" d="m759.15265 309.9334l0 0c3.7319946 2.1324768 8.043335 3.099823 12.355103 2.7721558m5.647522 31.738708c1.854187 -0.21066284 3.671692 -0.6567688 5.4055786 -1.3267822m46.66095 14.523132c-1.3041382 -1.8987122 -2.3960571 -3.9276123 -3.25708 -6.052185m62.15692 -2.472931l0 0c0.6727905 -2.1628113 1.1087646 -4.388794 1.3005371 -6.6408386m41.85492 -16.350159c0.08721924 -10.545471 -6.0822754 -20.200989 -15.858582 -24.819275m37.387573 -26.460052c-1.583252 3.5909119 -4.000244 6.776367 -7.0614624 9.30661m-10.0095825 -43.685303l0 0c0.2697754 1.4501038 0.39465332 2.921997 0.37286377 4.395279m-41.757812 -15.160355l0 0c-1.4789429 1.6895447 -2.6974487 3.5775757 -3.6174927 5.605316m-32.36328 -2.2975311l0 0c-0.788147 1.5345917 -1.376709 3.1584473 -1.7520752 4.8341675m-39.467102 1.3222809l0 0c2.3012085 1.3084412 4.430176 2.8833008 6.340027 4.689972m-55.626404 27.198303l0 0c0.23413086 1.6705322 0.604126 3.320465 1.1064453 4.934387" fill-rule="evenodd"/>
        <path fill="#ffffff" d="m813.7776 299.6397l0 -13.359375l2.6875 0l0 13.359375l-2.6875 0zm14.042664 0l-2.5625 0l0 -4.9375q0 -1.5625 -0.171875 -2.015625q-0.15625 -0.46875 -0.53125 -0.71875q-0.359375 -0.265625 -0.875 -0.265625q-0.671875 0 -1.203125 0.375q-0.53125 0.359375 -0.734375 0.96875q-0.1875 0.59375 -0.1875 2.21875l0 4.375l-2.546875 0l0 -9.671875l2.375 0l0 1.421875q1.265625 -1.640625 3.1875 -1.640625q0.84375 0 1.546875 0.3125q0.703125 0.296875 1.0625 0.78125q0.359375 0.46875 0.5 1.078125q0.140625 0.59375 0.140625 1.703125l0 6.015625zm7.036621 -9.671875l0 2.03125l-1.75 0l0 3.90625q0 1.1875 0.046875 1.390625q0.046875 0.1875 0.21875 0.3125q0.1875 0.125 0.4375 0.125q0.359375 0 1.03125 -0.25l0.21875 2.0q-0.890625 0.375 -2.015625 0.375q-0.703125 0 -1.265625 -0.234375q-0.546875 -0.234375 -0.8125 -0.59375q-0.25 -0.375 -0.34375 -1.0q-0.09375 -0.453125 -0.09375 -1.8125l0 -4.21875l-1.171875 0l0 -2.03125l1.171875 0l0 -1.921875l2.578125 -1.5l0 3.421875l1.75 0zm7.3689575 6.59375l2.546875 0.421875q-0.484375 1.40625 -1.546875 2.140625q-1.0625 0.734375 -2.65625 0.734375q-2.515625 0 -3.734375 -1.65625q-0.953125 -1.3125 -0.953125 -3.328125q0 -2.40625 1.25 -3.765625q1.265625 -1.359375 3.1875 -1.359375q2.15625 0 3.40625 1.421875q1.25 1.421875 1.1875 4.375l-6.40625 0q0.03125 1.140625 0.609375 1.78125q0.59375 0.625 1.484375 0.625q0.59375 0 1.0 -0.328125q0.421875 -0.328125 0.625 -1.0625zm0.15625 -2.59375q-0.03125 -1.109375 -0.578125 -1.6875q-0.546875 -0.578125 -1.328125 -0.578125q-0.84375 0 -1.390625 0.609375q-0.546875 0.609375 -0.53125 1.65625l3.828125 0zm7.0787964 5.671875l-2.5625 0l0 -9.671875l2.375 0l0 1.375q0.609375 -0.984375 1.09375 -1.28125q0.484375 -0.3125 1.109375 -0.3125q0.875 0 1.6875 0.484375l-0.796875 2.234375q-0.640625 -0.421875 -1.203125 -0.421875q-0.53125 0 -0.90625 0.296875q-0.375 0.296875 -0.59375 1.078125q-0.203125 0.765625 -0.203125 3.234375l0 2.984375zm13.604065 0l-2.5625 0l0 -4.9375q0 -1.5625 -0.171875 -2.015625q-0.15625 -0.46875 -0.53125 -0.71875q-0.359375 -0.265625 -0.875 -0.265625q-0.671875 0 -1.203125 0.375q-0.53125 0.359375 -0.734375 0.96875q-0.1875 0.59375 -0.1875 2.21875l0 4.375l-2.546875 0l0 -9.671875l2.375 0l0 1.421875q1.265625 -1.640625 3.1875 -1.640625q0.84375 0 1.546875 0.3125q0.703125 0.296875 1.0625 0.78125q0.359375 0.46875 0.5 1.078125q0.140625 0.59375 0.140625 1.703125l0 6.015625zm8.19281 -3.078125l2.546875 0.421875q-0.484375 1.40625 -1.546875 2.140625q-1.0625 0.734375 -2.65625 0.734375q-2.515625 0 -3.734375 -1.65625q-0.953125 -1.3125 -0.953125 -3.328125q0 -2.40625 1.25 -3.765625q1.265625 -1.359375 3.1875 -1.359375q2.15625 0 3.40625 1.421875q1.25 1.421875 1.1875 4.375l-6.40625 0q0.03125 1.140625 0.609375 1.78125q0.59375 0.625 1.484375 0.625q0.59375 0 1.0 -0.328125q0.421875 -0.328125 0.625 -1.0625zm0.15625 -2.59375q-0.03125 -1.109375 -0.578125 -1.6875q-0.546875 -0.578125 -1.328125 -0.578125q-0.84375 0 -1.390625 0.609375q-0.546875 0.609375 -0.53125 1.65625l3.828125 0zm9.063232 -4.0l0 2.03125l-1.75 0l0 3.90625q0 1.1875 0.046875 1.390625q0.046875 0.1875 0.21875 0.3125q0.1875 0.125 0.4375 0.125q0.359375 0 1.03125 -0.25l0.21875 2.0q-0.890625 0.375 -2.015625 0.375q-0.703125 0 -1.265625 -0.234375q-0.546875 -0.234375 -0.8125 -0.59375q-0.25 -0.375 -0.34375 -1.0q-0.09375 -0.453125 -0.09375 -1.8125l0 -4.21875l-1.171875 0l0 -2.03125l1.171875 0l0 -1.921875l2.578125 -1.5l0 3.421875l1.75 0z" fill-rule="nonzero"/>
        <path fill="#000000" fill-opacity="0.0" d="m574.64636 296.19678l174.8346 0" fill-rule="evenodd"/>
        <path id="nat-to-internet" stroke="#000000" stroke-width="2.0" stroke-linejoin="round" stroke-linecap="butt" d="m574.64636 296.19678l174.8346 0" fill-rule="evenodd"/>


        <circle id="packet-nat-1" r="10" cx="0" cy="0" fill="tomato">

            <animateMotion
                    id="p1_start"
                    dur="2s"
                    begin="0;p1_nat_to_instance.end"
                    fill="freeze">
                <mpath xlink:href="#instance1-to-nat" />
            </animateMotion>
            <animateMotion
                    id="p1_nat_to_internet"
                    dur="2s"
                    begin="p1_start.end"
                    fill="freeze">
                <mpath xlink:href="#nat-to-internet" />
            </animateMotion>
            <animateMotion
                    id="p1_internet_to_nat"
                    dur="2s"
                    begin="p1_nat_to_internet.end"
                    fill="freeze" keyPoints="1;0" keyTimes="0;1" calcMode="linear">
                <mpath xlink:href="#nat-to-internet" />
            </animateMotion>
            <animateMotion
                    id="p1_nat_to_instance"
                    dur="2s"
                    begin="p1_internet_to_nat.end"
                    fill="freeze" keyPoints="1;0" keyTimes="0;1" calcMode="linear">
                <mpath xlink:href="#instance1-to-nat" />
            </animateMotion>
        </circle>

        <circle id="packet-nat-2" r="10" cx="10" cy="0" fill="steelblue">
        <animateMotion
                    id="p2_start"
                    dur="2s"
                    begin="2;p2_nat_to_instance.end"
                    fill="freeze">
                <mpath xlink:href="#instance2-to-nat" />
            </animateMotion>
            <animateMotion
                    id="p2_nat_to_internet"
                    dur="2s"
                    begin="p2_start.end"
                    fill="freeze">
                <mpath xlink:href="#nat-to-internet" />
            </animateMotion>
            <animateMotion
                    id="p2_internet_to_nat"
                    dur="2s"
                    begin="p2_nat_to_internet.end"
                    fill="freeze" keyPoints="1;0" keyTimes="0;1" calcMode="linear">
                <mpath xlink:href="#nat-to-internet" />
            </animateMotion>
            <animateMotion
                    id="p2_nat_to_instance"
                    dur="2s"
                    begin="p2_internet_to_nat.end"
                    fill="freeze" keyPoints="1;0" keyTimes="0;1" calcMode="linear">
                <mpath xlink:href="#instance2-to-nat" />
            </animateMotion>

        </circle>
    </g>
</svg>
